<?xml version="1.0" encoding="UTF-8"?>
<svg version="1.1" xmlns="http://www.w3.org/2000/svg" width="285" height="416">
<path d="M0 0 C4.31538879 2.39205071 7.91379806 5.28680484 11.625 8.5 C12.23891602 9.03117432 12.85283203 9.56234863 13.48535156 10.10961914 C41.6097431 34.68379883 59.44957604 65.73924766 64 103 C64.11502112 105.90924703 64.09374853 108.81170779 64.0625 111.72265625 C64.05682007 112.95646278 64.05682007 112.95646278 64.05102539 114.2151947 C64.03487104 117.6987856 64.00693432 121.18225399 63.97949219 124.66577148 C63.79241405 145.61222318 63.79241405 145.61222318 67.0625 166.25 C67.27946533 167.13840576 67.49643066 168.02681152 67.7199707 168.94213867 C72.28199353 186.56406997 81.10232628 203.22152174 93 217 C100.1423098 202.71538039 91.55059415 176.91634754 88.18652344 162.35351562 C85.92092131 152.27481469 84.68094989 142.29643202 84 132 C84.66 132 85.32 132 86 132 C86.49306641 133.43666016 86.49306641 133.43666016 86.99609375 134.90234375 C92.61877686 150.83462952 100.68667944 164.72827101 109.82592773 178.89233398 C125.93355615 203.90264183 136.45660241 227.81919913 136.375 258 C136.37478851 258.72411072 136.37457703 259.44822144 136.37435913 260.1942749 C136.33954581 272.17170561 135.31264801 283.45336659 132 295 C131.81808105 295.66547852 131.63616211 296.33095703 131.44873047 297.01660156 C122.53007815 329.00897906 100.77394316 355.86459372 72.02978516 372.11376953 C40.39788737 389.33844222 4.31691676 395.20262668 -30.6875 385.3125 C-51.80616132 379.02413184 -69.72782986 368.8542632 -86 354 C-86.73605469 353.33484375 -87.47210938 352.6696875 -88.23046875 351.984375 C-94.23265325 346.2817007 -99.15430286 339.682655 -104 333 C-104.63035156 332.13761719 -105.26070312 331.27523438 -105.91015625 330.38671875 C-122.21201995 306.50950153 -129.0256969 274.37637857 -123.8125 246 C-119.30807187 227.04818948 -110.86036453 209.83853719 -97 196 C-94.67578125 194.6484375 -94.67578125 194.6484375 -93 194 C-93.144375 194.58265625 -93.28875 195.1653125 -93.4375 195.765625 C-96.5671063 209.58805281 -95.43081667 223.26960782 -89 236 C-87.46512208 238.25294946 -85.9128762 240.03542444 -84 242 C-83.67 242 -83.34 242 -83 242 C-82.84144531 241.4028418 -82.68289062 240.80568359 -82.51953125 240.19042969 C-80.644181 233.51014198 -78.008372 227.48690915 -75 221.25 C-67.10187505 204.25935089 -65.65696694 191.85559067 -72.0625 174 C-72.59378879 172.58285908 -73.12627885 171.16616775 -73.66015625 169.75 C-78.2485592 156.90782263 -77.25093317 141.4745142 -72 129 C-64.1154618 112.5989568 -51.92120248 99.87809426 -36 91 C-35.34 91 -34.68 91 -34 91 C-34.96353159 94.03017177 -35.97387396 96.94244355 -37.2890625 99.83984375 C-43.66495 114.62369985 -42.94265779 131.43761793 -37.2890625 146.33203125 C-36.14411857 149.07525671 -36.14411857 149.07525671 -34 151 C-33.5153125 149.98421875 -33.030625 148.9684375 -32.53125 147.921875 C-27.58114138 137.69198353 -22.09030298 128.30040235 -15.14453125 119.265625 C3.92381762 94.45938391 14.11380989 69.38049677 11.76171875 37.80078125 C10.19827364 26.47764846 6.23592078 14.76212442 0.76513672 4.73535156 C0 3 0 3 0 0 Z " fill="#EF4303" transform="translate(135,14)"/>
<path d="M0 0 C5.99959229 4.95618494 11.80855449 10.19226619 17 16 C17 16.66 17 17.32 17 18 C17.66 18 18.32 18 19 18 C20.18579102 19.30664062 20.18579102 19.30664062 21.50390625 21.15625 C22.23758423 22.18371338 22.23758423 22.18371338 22.98608398 23.23193359 C23.76640991 24.35462646 23.76640991 24.35462646 24.5625 25.5 C25.0975415 26.26521973 25.63258301 27.03043945 26.18383789 27.81884766 C36.634073 42.99452848 44.9586879 59.22733736 50 77 C50.26474121 77.91773193 50.52948242 78.83546387 50.80224609 79.78100586 C52.97809501 88.09765569 53.46565173 96.09161062 53.39111328 104.62817383 C53.37509008 106.80028804 53.39102351 108.97052131 53.41015625 111.14257812 C53.4336778 124.95812336 51.39216459 137.93555045 46.1875 150.8125 C45.8363916 151.70485352 45.4852832 152.59720703 45.12353516 153.51660156 C41.15228754 163.41851073 36.08917723 172.25490505 30 181 C49.92473072 164.66289588 65.18070878 139.9374792 68 114 C68.66 114 69.32 114 70 114 C72.1244901 122.02855388 72.34070748 129.94992054 72.31567383 138.19433594 C72.31251536 140.36444483 72.33604487 142.53318369 72.36132812 144.703125 C72.41665996 156.35587692 70.73847823 166.73758157 65.25 177.125 C64.90074463 177.80167725 64.55148926 178.47835449 64.19165039 179.17553711 C57.43883879 191.99471874 49.0776994 200.68754014 37.4765625 209.1796875 C35.17230599 210.77736847 35.17230599 210.77736847 34 212 C35.65 212.33 37.3 212.66 39 213 C39 213.33 39 213.66 39 214 C27.24807719 215.31885306 15.75192281 215.31885306 4 214 C4 213.67 4 213.34 4 213 C5.65 212.67 7.3 212.34 9 212 C8.32195312 211.59910156 7.64390625 211.19820312 6.9453125 210.78515625 C-7.37572868 202.03781669 -19.2658039 190.56968636 -24 174 C-28.26261972 152.59555953 -21.48090554 135.00317394 -10.0625 117.1875 C8.02889594 88.85711463 14.21354832 57.06056662 7.57714844 23.88623047 C5.99775222 16.85942628 3.9380462 10.10567022 0.734375 3.63671875 C0 2 0 2 0 0 Z " fill="#FDB748" transform="translate(119,189)"/>
<path d="M0 0 C0.66 0 1.32 0 2 0 C3.55859375 1.84375 3.55859375 1.84375 5.4375 4.5 C6.14519531 5.49902344 6.85289062 6.49804688 7.58203125 7.52734375 C8.3885795 8.68450664 9.19453401 9.84208352 10 11 C10.44649902 11.63695801 10.89299805 12.27391602 11.35302734 12.93017578 C26.49279378 34.54566901 40.39560912 57.77031457 36.5390625 85.2890625 C32.22800901 107.75725893 20.19754891 126.020426 2 140 C-0.796875 141.25 -0.796875 141.25 -3 142 C-3 142.99 -3 143.98 -3 145 C-4.98 145.33 -6.96 145.66 -9 146 C-9 146.66 -9 147.32 -9 148 C-13.46334184 149.72293135 -17.10201231 150.22240791 -21.875 150.125 C-23.02742187 150.10695313 -24.17984375 150.08890625 -25.3671875 150.0703125 C-26.23601562 150.04710937 -27.10484375 150.02390625 -28 150 C-25.24535901 146.27123539 -22.50997743 143.73098886 -18.6875 141.125 C-4.12095084 130.71204244 5.95955797 114.43796435 9.63378906 96.79345703 C10.3737886 91.14874054 10.25447 85.45428472 10.20581055 79.77124023 C10.18756783 77.5706821 10.18530146 75.37054783 10.18554688 73.16992188 C10.43267692 61.99836104 10.43267692 61.99836104 9 51 C8.01 50.505 8.01 50.505 7 50 C7.02094727 49.26587891 7.04189453 48.53175781 7.06347656 47.77539062 C7.49135069 30.47627712 7.06868215 15.96023363 0 0 Z " fill="#FC7A02" transform="translate(180,252)"/>
<path d="M0 0 C0.495 0.99 0.495 0.99 1 2 C0.07421875 4.390625 0.07421875 4.390625 -1.3125 7.25 C-7.693815 20.82576154 -9.75786598 36.42326524 -4.625 50.75 C-3.77639313 52.8442228 -2.90397531 54.92907474 -2 57 C-1.65710938 57.93328125 -1.31421875 58.8665625 -0.9609375 59.828125 C-0.20324842 62.16379058 -0.20324842 62.16379058 2 63 C1.7834375 63.7528125 1.566875 64.505625 1.34375 65.28125 C-1.61175937 76.55597092 -2.86721266 88.78508328 1 100 C1.23332031 100.75023437 1.46664062 101.50046875 1.70703125 102.2734375 C7.06015868 117.77061918 19.58662984 128.91787491 34 136 C34 136.33 34 136.66 34 137 C18.25512528 137.3690205 18.25512528 137.3690205 11 135 C11 134.01 11 133.02 11 132 C10.27941406 131.73960937 9.55882812 131.47921875 8.81640625 131.2109375 C-5.02438892 125.25997148 -16.84089773 111.93062573 -24 99 C-24.39703125 98.32582031 -24.7940625 97.65164063 -25.203125 96.95703125 C-28.31568681 91.3242235 -29.64617831 85.25172435 -31 79 C-31.185625 78.2265625 -31.37125 77.453125 -31.5625 76.65625 C-35.06567154 55.38699425 -28.2396799 35.40638705 -16.0625 18.125 C-11.15557876 11.70527301 -5.75849088 5.66766295 0 0 Z " fill="#FC7B02" transform="translate(96,265)"/>
<path d="M0 0 C0.66 0 1.32 0 2 0 C2.32871094 0.95777344 2.65742188 1.91554687 2.99609375 2.90234375 C6.27861445 12.18358862 10.29433083 20.73869673 15.046875 29.35546875 C16.59126727 32.16826199 17.89738732 34.97954505 19 38 C15.535 37.505 15.535 37.505 12 37 C11.87625 37.53625 11.7525 38.0725 11.625 38.625 C10.87793984 41.4638286 9.94696636 44.22223202 9 47 C6.50287578 42.39114282 5.60431599 37.58918462 4.5 32.5 C4.16899292 30.98394165 4.16899292 30.98394165 3.83129883 29.43725586 C1.78721314 19.68121932 0.7287635 9.93076237 0 0 Z " fill="#EF5821" transform="translate(219,146)"/>
<path d="M0 0 C0.33 0 0.66 0 1 0 C2.12644823 6.29485777 2.12817673 12.45677634 2.09765625 18.83984375 C2.0962413 19.96193741 2.09482635 21.08403107 2.09336853 22.24012756 C2.087794 25.80594608 2.07524616 29.37170062 2.0625 32.9375 C2.05748171 35.3626293 2.05291938 37.78775959 2.04882812 40.21289062 C2.03783291 46.14194872 2.0211202 52.07096979 2 58 C1.67 58 1.34 58 1 58 C0.34 53.05 -0.32 48.1 -1 43 C-1.66 43 -2.32 43 -3 43 C-3.433125 44.4540625 -3.433125 44.4540625 -3.875 45.9375 C-5 49 -5 49 -7 50 C-7.309375 50.639375 -7.61875 51.27875 -7.9375 51.9375 C-9 54 -9 54 -12 56 C-12.70125 56.144375 -13.4025 56.28875 -14.125 56.4375 C-15.053125 56.7159375 -15.053125 56.7159375 -16 57 C-16.33 57.99 -16.66 58.98 -17 60 C-17.66 58.68 -18.32 57.36 -19 56 C-17.625 54.5 -17.625 54.5 -16 53 C-15.34 53 -14.68 53 -14 53 C-13.773125 52.2575 -13.54625 51.515 -13.3125 50.75 C-11.7376598 47.45033483 -9.92496664 46.14021949 -7 44 C-6.443125 43.4225 -5.88625 42.845 -5.3125 42.25 C-4 41 -4 41 -2 41 C-2 40.34 -2 39.68 -2 39 C-1.34 39 -0.68 39 0 39 C0 26.13 0 13.26 0 0 Z " fill="#F06939" transform="translate(197,110)"/>
<path d="M0 0 C0.33 0.66 0.66 1.32 1 2 C1.99 2.33 2.98 2.66 4 3 C3.01 3.495 3.01 3.495 2 4 C0.86649466 6.01669827 0.86649466 6.01669827 0 8 C-0.99 7.67 -1.98 7.34 -3 7 C-3.165 7.825 -3.33 8.65 -3.5 9.5 C-5.57079647 14.33185843 -8.86349693 17.77270849 -13 21 C-13.99 21 -14.98 21 -16 21 C-16.33 21.99 -16.66 22.98 -17 24 C-17.99 24.66 -18.98 25.32 -20 26 C-20.99 25.67 -21.98 25.34 -23 25 C-23.33 25.99 -23.66 26.98 -24 28 C-23.45144652 23.428721 -22.58255197 19.32564205 -21 15 C-20.67 16.32 -20.34 17.64 -20 19 C-15.54670087 15.69593935 -11.81613668 11.8168147 -7.98828125 7.828125 C-6 6 -6 6 -4 6 C-3.67 5.01 -3.34 4.02 -3 3 C-2.01 3 -1.02 3 0 3 C0 2.01 0 1.02 0 0 Z " fill="#EE4D0E" transform="translate(84,128)"/>
<path d="M0 0 C1.32 1.32 2.64 2.64 4 4 C3.34 4 2.68 4 2 4 C1.67 4.99 1.34 5.98 1 7 C-0.32 7 -1.64 7 -3 7 C-3.185625 7.825 -3.37125 8.65 -3.5625 9.5 C-5.4676399 14.13860149 -8.34176161 17.58618734 -12 21 C-12.99 21.33 -13.98 21.66 -15 22 C-15 22.66 -15 23.32 -15 24 C-15.99 24.33 -16.98 24.66 -18 25 C-18.66 25.66 -19.32 26.32 -20 27 C-20.66 25.35 -21.32 23.7 -22 22 C-21.45730469 21.54109375 -20.91460937 21.0821875 -20.35546875 20.609375 C-19.64003906 19.99578125 -18.92460938 19.3821875 -18.1875 18.75 C-17.47980469 18.14671875 -16.77210937 17.5434375 -16.04296875 16.921875 C-13.94002444 15.06082782 -13.94002444 15.06082782 -12.36328125 12.765625 C-11.91339844 12.18296875 -11.46351562 11.6003125 -11 11 C-10.34 11 -9.68 11 -9 11 C-8.773125 10.4225 -8.54625 9.845 -8.3125 9.25 C-6.65151778 6.40260191 -4.68475439 4.87932807 -2 3 C-1.34 3 -0.68 3 0 3 C0 2.01 0 1.02 0 0 Z " fill="#FA830F" transform="translate(88,321)"/>
<path d="M0 0 C0.33 0.66 0.66 1.32 1 2 C1.66 2 2.32 2 3 2 C3 2.66 3 3.32 3 4 C2.34 4 1.68 4 1 4 C0.67 5.32 0.34 6.64 0 8 C-0.99 8 -1.98 8 -3 8 C-3.66 9.65 -4.32 11.3 -5 13 C-5.66 13 -6.32 13 -7 13 C-7.33 13.99 -7.66 14.98 -8 16 C-8.66 16 -9.32 16 -10 16 C-10.33 16.99 -10.66 17.98 -11 19 C-11.66 19 -12.32 19 -13 19 C-13 19.66 -13 20.32 -13 21 C-14.29735507 22.04625409 -15.63266972 23.04701223 -17 24 C-17.33 24.33 -17.66 24.66 -18 25 C-18.99 25 -19.98 25 -21 25 C-21 21 -21 21 -18.8828125 18.421875 C-17.97273438 17.54015625 -17.06265625 16.6584375 -16.125 15.75 C-15.22007813 14.85796875 -14.31515625 13.9659375 -13.3828125 13.046875 C-11 11 -11 11 -9 11 C-8.731875 10.360625 -8.46375 9.72125 -8.1875 9.0625 C-7 7 -7 7 -4 6 C-3.67 5.34 -3.34 4.68 -3 4 C-2.01268258 2.65724831 -1.01405257 1.32267727 0 0 Z " fill="#EE4E10" transform="translate(117,161)"/>
<path d="M0 0 C1.32 0.99 2.64 1.98 4 3 C3.34 3 2.68 3 2 3 C1.67 3.99 1.34 4.98 1 6 C-0.32 6 -1.64 6 -3 6 C-3.2475 7.0725 -3.495 8.145 -3.75 9.25 C-5.00916475 13.02749425 -5.83014363 14.66922326 -9 17 C-10.32 17 -11.64 17 -13 17 C-13 17.99 -13 18.98 -13 20 C-13.66 20 -14.32 20 -15 20 C-15 20.99 -15 21.98 -15 23 C-15.66 23 -16.32 23 -17 23 C-17.33 23.66 -17.66 24.32 -18 25 C-19.32 24.34 -20.64 23.68 -22 23 C-21.24172908 21.82512964 -20.46792245 20.66027408 -19.6875 19.5 C-19.25824219 18.8503125 -18.82898437 18.200625 -18.38671875 17.53125 C-17.92910156 17.0259375 -17.47148438 16.520625 -17 16 C-16.01 16 -15.02 16 -14 16 C-13.6596875 15.17242187 -13.6596875 15.17242187 -13.3125 14.328125 C-11.61274074 11.31307583 -9.45195184 9.18769631 -7 6.75 C-6.113125 5.85796875 -5.22625 4.9659375 -4.3125 4.046875 C-2 2 -2 2 0 2 C0 1.34 0 0.68 0 0 Z " fill="#EF4E10" transform="translate(55,289)"/>
<path d="M0 0 C0.66 0 1.32 0 2 0 C2 1.98 2 3.96 2 6 C0.33333333 6 -1.33333333 6 -3 6 C-3.103125 6.556875 -3.20625 7.11375 -3.3125 7.6875 C-4.14011401 10.47129258 -5.37737752 12.59851873 -7 15 C-7.99 15.495 -7.99 15.495 -9 16 C-9.33 16.66 -9.66 17.32 -10 18 C-12 19 -12 19 -15 20 C-15 20.99 -15 21.98 -15 23 C-15.66 23 -16.32 23 -17 23 C-17.66 23.99 -18.32 24.98 -19 26 C-19.99 24.68 -20.98 23.36 -22 22 C-21.01 21.67 -20.02 21.34 -19 21 C-18.67 20.34 -18.34 19.68 -18 19 C-17 17 -17 17 -14 16 C-13.67 15.01 -13.34 14.02 -13 13 C-12.34 13 -11.68 13 -11 13 C-10.7421875 12.41734375 -10.484375 11.8346875 -10.21875 11.234375 C-8.90165983 8.8197097 -7.44911616 7.18259823 -5.5 5.25 C-4.8915625 4.63640625 -4.283125 4.0228125 -3.65625 3.390625 C-2 2 -2 2 0 2 C0 1.34 0 0.68 0 0 Z " fill="#EE4E10" transform="translate(248,293)"/>
<path d="M0 0 C0.33 0.66 0.66 1.32 1 2 C1.99 2 2.98 2 4 2 C4 2.66 4 3.32 4 4 C3.34 4 2.68 4 2 4 C2 4.66 2 5.32 2 6 C0.35 6 -1.3 6 -3 6 C-3.226875 7.051875 -3.45375 8.10375 -3.6875 9.1875 C-4.81085509 13.17177382 -6.83741763 15.31180498 -10 18 C-12.00032373 19.00016187 -13.83125748 19.49396008 -16 20 C-15.67 20.99 -15.34 21.98 -15 23 C-16.32 22.34 -17.64 21.68 -19 21 C-17.36644648 16.7892875 -14.23776995 14.01460465 -11.0625 10.9375 C-10.52431641 10.40833984 -9.98613281 9.87917969 -9.43164062 9.33398438 C-7.95794792 7.8857315 -6.47917546 6.44265261 -5 5 C-3.99858413 4.00141788 -2.99848268 3.00151502 -2 2 C-1.34 1.34 -0.68 0.68 0 0 Z " fill="#EF4D0F" transform="translate(164,114)"/>
<path d="M0 0 C0.33 0.66 0.66 1.32 1 2 C1.99 2 2.98 2 4 2 C4 2.66 4 3.32 4 4 C3.01 4 2.02 4 1 4 C0.7525 4.61875 0.505 5.2375 0.25 5.875 C-1.23740369 8.40358627 -2.43678009 8.71839004 -5 10 C-5.70151152 11.3153341 -6.36525925 12.65117592 -7 14 C-8.92540409 16.10591073 -10.44447095 17.72223547 -13 19 C-13.66 19.66 -14.32 20.32 -15 21 C-15.66 19.35 -16.32 17.7 -17 16 C-16.34 16 -15.68 16 -15 16 C-14.6596875 15.1646875 -14.6596875 15.1646875 -14.3125 14.3125 C-12.62622733 11.34144815 -10.469646 9.35477875 -8 7 C-7.113125 6.071875 -6.22625 5.14375 -5.3125 4.1875 C-3 2 -3 2 -1 2 C-0.67 1.34 -0.34 0.68 0 0 Z " fill="#EE4E0F" transform="translate(216,260)"/>
<path d="M0 0 C1.32 0.66 2.64 1.32 4 2 C4 2.66 4 3.32 4 4 C3.34 4 2.68 4 2 4 C2 4.66 2 5.32 2 6 C0.35 6.33 -1.3 6.66 -3 7 C-3.226875 7.886875 -3.45375 8.77375 -3.6875 9.6875 C-5.18389846 13.4641247 -6.92491737 15.38617976 -10 18 C-10.66 18 -11.32 18 -12 18 C-12.12375 18.639375 -12.2475 19.27875 -12.375 19.9375 C-12.58125 20.618125 -12.7875 21.29875 -13 22 C-13.66 22.33 -14.32 22.66 -15 23 C-14.09276387 18.31261335 -13.0452733 13.65806256 -12 9 C-11.67 9.66 -11.34 10.32 -11 11 C-10.34 11 -9.68 11 -9 11 C-8.731875 10.360625 -8.46375 9.72125 -8.1875 9.0625 C-7 7 -7 7 -4 6 C-2.79117904 3.99983534 -2.79117904 3.99983534 -2 2 C-1.34 2 -0.68 2 0 2 C0 1.34 0 0.68 0 0 Z " fill="#FA8411" transform="translate(201,340)"/>
<path d="M0 0 C0.99 0.33 1.98 0.66 3 1 C2.01 1.495 2.01 1.495 1 2 C0.30741771 3.99117408 -0.35747635 5.9921136 -1 8 C-1.99 9.485 -1.99 9.485 -3 11 C-3.66 11 -4.32 11 -5 11 C-5.33 11.99 -5.66 12.98 -6 14 C-6.66 14 -7.32 14 -8 14 C-8 14.66 -8 15.32 -8 16 C-8.99 16 -9.98 16 -11 16 C-11 16.66 -11 17.32 -11 18 C-12.32 18 -13.64 18 -15 18 C-14.65787071 15.01785809 -14.36115026 13.39007534 -12.29296875 11.15625 C-11.59816406 10.6096875 -10.90335937 10.063125 -10.1875 9.5 C-7.0097899 6.89643788 -4.50417226 4.2746868 -2 1 C-1.34 0.67 -0.68 0.34 0 0 Z " fill="#FBBC53" transform="translate(117,359)"/>
<path d="M0 0 C1.5 1.375 1.5 1.375 3 3 C3 3.66 3 4.32 3 5 C2.34 5 1.68 5 1 5 C1 5.66 1 6.32 1 7 C-2 9 -2 9 -5 10 C-5 10.66 -5 11.32 -5 12 C-5.99 12 -6.98 12 -8 12 C-8 12.99 -8 13.98 -8 15 C-8.99 14.67 -9.98 14.34 -11 14 C-11 12.68 -11 11.36 -11 10 C-9.59411108 8.72489145 -8.17556276 7.45776415 -6.66796875 6.3046875 C-4.23072724 4.39827376 -2.15418638 2.21754481 0 0 Z " fill="#EF4D10" transform="translate(92,252)"/>
<path d="M0 0 C2.475 0.99 2.475 0.99 5 2 C4.00310405 4.49223987 3.38477686 5.76416902 1.0625 7.1875 C-0.60515774 7.84445608 -2.29958645 8.43319548 -4 9 C-4 9.99 -4 10.98 -4 12 C-5.32 12.33 -6.64 12.66 -8 13 C-8.66 11.35 -9.32 9.7 -10 8 C-9.05125 7.566875 -8.1025 7.13375 -7.125 6.6875 C-3.79958063 5.20697799 -3.79958063 5.20697799 -2 2 C-1.34 2 -0.68 2 0 2 C0 1.34 0 0.68 0 0 Z " fill="#EF4F0F" transform="translate(171,238)"/>
<path d="M0 0 C1.625 1.5625 1.625 1.5625 3 4 C2.42846912 8.49059979 1.29997225 11.07386525 -2.125 13.9375 C-3.07375 14.618125 -4.0225 15.29875 -5 16 C-5.99 15.34 -6.98 14.68 -8 14 C-7.75 12.125 -7.75 12.125 -7 10 C-5.67532254 9.3162955 -4.34136367 8.65035814 -3 8 C-1.38846758 5.45547513 -0.62833121 2.93221231 0 0 Z " fill="#EE4C0D" transform="translate(257,215)"/>
<path d="M0 0 C1.65 1.65 3.3 3.3 5 5 C4.01 5.495 4.01 5.495 3 6 C2.566875 6.99 2.566875 6.99 2.125 8 C1 10 1 10 -1.125 10.75 C-2.053125 10.87375 -2.053125 10.87375 -3 11 C-3 11.99 -3 12.98 -3 14 C-4.32 13.34 -5.64 12.68 -7 12 C-6.1875 10.0625 -6.1875 10.0625 -5 8 C-4.01 7.67 -3.02 7.34 -2 7 C-0.81480735 4.56723614 0 2.71982714 0 0 Z " fill="#EE4D0E" transform="translate(166,43)"/>
<path d="M0 0 C0.33 1.32 0.66 2.64 1 4 C1.99 3.34 2.98 2.68 4 2 C4.99 2 5.98 2 7 2 C7.33 3.32 7.66 4.64 8 6 C7.01 6 6.02 6 5 6 C4.67 6.99 4.34 7.98 4 9 C3.01 9.66 2.02 10.32 1 11 C0.01 10.67 -0.98 10.34 -2 10 C-2.33 10.99 -2.66 11.98 -3 13 C-2.45144652 8.428721 -1.58255197 4.32564205 0 0 Z " fill="#EF4D0F" transform="translate(63,143)"/>
<path d="M0 0 C0.144375 0.598125 0.28875 1.19625 0.4375 1.8125 C0.8872439 3.56150404 1.42892341 5.28677023 2 7 C0.06441401 7.67220351 -1.87354372 8.33758077 -3.8125 9 C-4.89144531 9.37125 -5.97039062 9.7425 -7.08203125 10.125 C-10 11 -10 11 -13 11 C-13 10.34 -13 9.68 -13 9 C-11.02 8.67 -9.04 8.34 -7 8 C-7 7.01 -7 6.02 -7 5 C-5.46875 3.61328125 -5.46875 3.61328125 -3.5 2.3125 C-2.52546875 1.65701172 -2.52546875 1.65701172 -1.53125 0.98828125 C-0.77328125 0.49908203 -0.77328125 0.49908203 0 0 Z " fill="#F05415" transform="translate(184,389)"/>
<path d="M0 0 C0.66 0 1.32 0 2 0 C2 0.99 2 1.98 2 3 C2.66 3.33 3.32 3.66 4 4 C3.34 4 2.68 4 2 4 C1.67 5.32 1.34 6.64 1 8 C-0.32 7.67 -1.64 7.34 -3 7 C-3.66 8.98 -4.32 10.96 -5 13 C-5.99 12.34 -6.98 11.68 -8 11 C-6.4722133 7.56247993 -4.49818944 4.81046312 -2 2 C-1.34 2 -0.68 2 0 2 C0 1.34 0 0.68 0 0 Z " fill="#EE4E10" transform="translate(102,241)"/>
<path d="M0 0 C0.33 0.66 0.66 1.32 1 2 C1.66 2 2.32 2 3 2 C3 2.66 3 3.32 3 4 C2.34 4 1.68 4 1 4 C0.67 5.32 0.34 6.64 0 8 C-0.61875 8.103125 -1.2375 8.20625 -1.875 8.3125 C-4.36526484 8.87525373 -4.36526484 8.87525373 -6 12 C-6.99 11.67 -7.98 11.34 -9 11 C-9 10.01 -9 9.02 -9 8 C-8.195625 7.7525 -7.39125 7.505 -6.5625 7.25 C-5.2940625 6.63125 -5.2940625 6.63125 -4 6 C-3.33820153 4.01954441 -3.33820153 4.01954441 -3 2 C-2.01 1.34 -1.02 0.68 0 0 Z " fill="#EE4E0F" transform="translate(183,227)"/>
<path d="M0 0 C0.886875 0.103125 1.77375 0.20625 2.6875 0.3125 C1.6975 0.8075 1.6975 0.8075 0.6875 1.3125 C0.5225 1.9725 0.3575 2.6325 0.1875 3.3125 C0.0225 3.9725 -0.1425 4.6325 -0.3125 5.3125 C-1.3025 5.8075 -1.3025 5.8075 -2.3125 6.3125 C-2.3125 5.6525 -2.3125 4.9925 -2.3125 4.3125 C-2.9725 4.3125 -3.6325 4.3125 -4.3125 4.3125 C-4.9725 6.2925 -5.6325 8.2725 -6.3125 10.3125 C-7.3025 9.9825 -8.2925 9.6525 -9.3125 9.3125 C-8.97406193 6.26655733 -8.07458715 5.01340955 -6.125 2.5625 C-3.3125 0.3125 -3.3125 0.3125 0 0 Z " fill="#ED4E10" transform="translate(23.3125,257.6875)"/>
<path d="M0 0 C4.08963819 2.28538605 7.46362104 4.95706926 11 8 C9 9 9 9 6 9 C5.34 9.66 4.68 10.32 4 11 C3.32591692 9.73308493 2.66099503 8.46129251 2 7.1875 C1.62875 6.47980469 1.2575 5.77210937 0.875 5.04296875 C0 3 0 3 0 0 Z " fill="#EF7348" transform="translate(135,14)"/>
<path d="M0 0 C0.66 0 1.32 0 2 0 C2.33 1.32 2.66 2.64 3 4 C2.34 4 1.68 4 1 4 C0.67 5.65 0.34 7.3 0 9 C-0.99 8.34 -1.98 7.68 -3 7 C-3 6.34 -3 5.68 -3 5 C-3.66 5 -4.32 5 -5 5 C-5 4.34 -5 3.68 -5 3 C-4.360625 2.87625 -3.72125 2.7525 -3.0625 2.625 C-2.0415625 2.315625 -2.0415625 2.315625 -1 2 C-0.67 1.34 -0.34 0.68 0 0 Z " fill="#ED500F" transform="translate(141,202)"/>
<path d="M0 0 C1 3 1 3 0 6 C-0.99 6 -1.98 6 -3 6 C-3.33 6.99 -3.66 7.98 -4 9 C-4.66 8.34 -5.32 7.68 -6 7 C-5.75558954 4.47442523 -5.17639341 3.2147398 -3.5625 1.25 C-2 0 -2 0 0 0 Z " fill="#FA8311" transform="translate(200,277)"/>
<path d="M0 0 C0.33 0.66 0.66 1.32 1 2 C1.99 2.33 2.98 2.66 4 3 C3.01 3.33 2.02 3.66 1 4 C0.67 4.66 0.34 5.32 0 6 C-1.64142963 7.0409066 -3.30712215 8.04504326 -5 9 C-5.66 8.34 -6.32 7.68 -7 7 C-6.01 6.67 -5.02 6.34 -4 6 C-2.79117904 3.99983534 -2.79117904 3.99983534 -2 2 C-1.34 2 -0.68 2 0 2 C0 1.34 0 0.68 0 0 Z " fill="#EE4F12" transform="translate(150,194)"/>
<path d="M0 0 C1.65 1.65 3.3 3.3 5 5 C4.01 5.495 4.01 5.495 3 6 C2.67 6.99 2.34 7.98 2 9 C1.34 9 0.68 9 0 9 C0 8.34 0 7.68 0 7 C-0.66 7 -1.32 7 -2 7 C-1.67 6.21625 -1.34 5.4325 -1 4.625 C0.11866511 2.15667503 0.11866511 2.15667503 0 0 Z " fill="#EF612A" transform="translate(166,43)"/>
<path d="M0 0 C0.66 0 1.32 0 2 0 C2.99 3.3 3.98 6.6 5 10 C4.01 9.67 3.02 9.34 2 9 C2 10.65 2 12.3 2 14 C1.67 14 1.34 14 1 14 C0.67 9.38 0.34 4.76 0 0 Z " fill="#F38966" transform="translate(219,146)"/>
<path d="M0 0 C1.625 1.625 1.625 1.625 3 4 C2.1875 7.25 2.1875 7.25 1 10 C-0.32 9.34 -1.64 8.68 -3 8 C-2.5359375 7.13375 -2.5359375 7.13375 -2.0625 6.25 C-1.07416636 4.15705816 -0.4831387 2.25464725 0 0 Z " fill="#EE622B" transform="translate(257,215)"/>
<path d="M0 0 C0.66 0 1.32 0 2 0 C2 0.99 2 1.98 2 3 C2.66 3.33 3.32 3.66 4 4 C3.34 4 2.68 4 2 4 C1.87625 4.5775 1.7525 5.155 1.625 5.75 C0.99351176 8.02335767 0.11141809 9.9253529 -1 12 C-2.09898702 8.70303895 -1.87124444 7.59505097 -1.0625 4.3125 C-0.86785156 3.50425781 -0.67320313 2.69601563 -0.47265625 1.86328125 C-0.31667969 1.24839844 -0.16070312 0.63351563 0 0 Z " fill="#F17245" transform="translate(69,208)"/>
<path d="M0 0 C0.99 0 1.98 0 3 0 C3.33 1.32 3.66 2.64 4 4 C3.34 4 2.68 4 2 4 C2 4.99 2 5.98 2 7 C0.68 6.34 -0.64 5.68 -2 5 C-1.125 1.125 -1.125 1.125 0 0 Z " fill="#EE4D10" transform="translate(246,229)"/>
<path d="M0 0 C1.01382963 3.6208201 1.49897691 7.27811418 2 11 C0.68 10.67 -0.64 10.34 -2 10 C-2.33 10.99 -2.66 11.98 -3 13 C-2.45144652 8.428721 -1.58255197 4.32564205 0 0 Z " fill="#EF7344" transform="translate(63,143)"/>
<path d="M0 0 C0.66 0.33 1.32 0.66 2 1 C-0.05567935 4.08351902 -2.35247996 6.42215154 -5 9 C-5.66 8.67 -6.32 8.34 -7 8 C-4.69 5.36 -2.38 2.72 0 0 Z " fill="#ED8B64" transform="translate(40,208)"/>
<path d="M0 0 C0.66 0 1.32 0 2 0 C2.33 0.99 2.66 1.98 3 3 C0.03 3.66 -2.94 4.32 -6 5 C-6 4.34 -6 3.68 -6 3 C-4.02 2.67 -2.04 2.34 0 2 C0 1.34 0 0.68 0 0 Z " fill="#F07142" transform="translate(177,395)"/>
<path d="M0 0 C0.66 0.33 1.32 0.66 2 1 C1.04882866 2.1725131 0.08882991 3.33787015 -0.875 4.5 C-1.40867187 5.1496875 -1.94234375 5.799375 -2.4921875 6.46875 C-2.98976563 6.9740625 -3.48734375 7.479375 -4 8 C-4.66 8 -5.32 8 -6 8 C-4.55746343 4.63408134 -2.66735273 2.48952921 0 0 Z " fill="#EE855E" transform="translate(83,116)"/>
<path d="" fill="#F3B09F" transform="translate(0,0)"/>
</svg>
