<?xml version="1.0" standalone="no"?>
<!DOCTYPE svg PUBLIC "-//W3C//DTD SVG 20010904//EN"
 "http://www.w3.org/TR/2001/REC-SVG-20010904/DTD/svg10.dtd">
<svg version="1.0" xmlns="http://www.w3.org/2000/svg"
 width="398.000000pt" height="384.000000pt" viewBox="0 0 398.000000 384.000000"
 preserveAspectRatio="xMidYMid meet">

<g transform="translate(0.000000,384.000000) scale(0.100000,-0.100000)"
fill="#000000" stroke="none">
<path d="M2048 3753 c6 -2 18 -2 25 0 6 3 1 5 -13 5 -14 0 -19 -2 -12 -5z"/>
<path d="M1543 3740 c-18 -4 -39 -13 -47 -19 -8 -7 -41 -14 -74 -16 -54 -2
-170 -42 -129 -44 24 -1 21 -19 -5 -42 l-23 -20 39 16 c48 19 56 19 56 0 0
-18 -24 -31 -73 -40 -20 -4 -37 -11 -37 -15 0 -5 -13 -8 -28 -8 -15 1 -75 -23
-132 -52 -172 -86 -199 -103 -254 -155 -19 -18 -51 -36 -70 -39 -22 -4 -37
-14 -41 -26 -3 -11 -24 -33 -46 -50 -21 -18 -39 -37 -39 -44 0 -7 -27 -37 -60
-65 -33 -29 -70 -72 -81 -94 -28 -55 -66 -95 -98 -102 -18 -4 -35 -21 -55 -57
-31 -57 -55 -127 -49 -145 4 -10 51 35 99 96 35 44 54 61 68 61 27 0 24 -27
-11 -81 -50 -78 -126 -231 -159 -321 -16 -43 -34 -78 -41 -78 -26 0 -42 43
-33 90 10 52 7 60 -24 60 -29 0 -46 -18 -46 -49 0 -14 -10 -45 -22 -70 -19
-37 -24 -67 -26 -151 l-4 -106 39 -24 c22 -15 39 -35 41 -48 2 -12 10 -22 19
-22 13 0 15 -9 9 -52 -3 -29 -6 -86 -6 -125 0 -57 -3 -73 -15 -73 -8 0 -19 -9
-25 -21 -9 -17 -8 -23 7 -35 15 -11 16 -15 4 -23 -11 -7 -11 -15 -2 -41 13
-37 15 -90 4 -90 -27 1 -46 64 -60 208 -4 44 -2 52 12 52 13 0 15 5 9 18 -4 9
-10 43 -13 74 -5 44 -9 55 -19 49 -17 -10 -18 -215 -2 -361 13 -116 43 -264
57 -283 6 -6 16 -34 23 -62 22 -84 110 -295 122 -295 5 0 8 -8 8 -17 0 -28 54
-114 99 -158 23 -21 41 -45 41 -52 0 -18 41 -63 58 -63 8 0 12 -6 9 -14 -7
-19 14 -36 50 -40 23 -3 29 -10 36 -40 8 -30 13 -36 28 -31 13 4 30 -2 49 -18
16 -14 42 -28 57 -32 16 -3 63 -39 106 -80 76 -71 179 -135 217 -135 10 0 22
-5 26 -11 3 -6 27 -20 52 -30 26 -11 50 -25 54 -31 7 -13 66 -30 183 -54 44
-9 89 -20 100 -24 11 -5 79 -13 151 -19 71 -6 146 -16 165 -21 42 -12 424 -3
450 10 27 15 112 13 107 -2 -4 -11 -112 -31 -233 -42 -77 -7 -361 -9 -372 -3
-6 4 -47 10 -90 13 -87 6 -183 25 -288 55 -38 12 -83 19 -100 17 -25 -2 -15
-8 55 -31 47 -16 110 -32 140 -37 30 -5 87 -16 125 -24 115 -25 333 -38 454
-26 122 12 132 14 146 21 6 4 30 7 53 8 24 0 49 4 55 8 6 3 29 8 51 9 150 9
251 37 367 100 19 11 45 21 59 24 14 3 25 11 25 19 0 14 34 32 47 24 4 -2 13
5 20 17 7 11 18 20 25 20 6 0 18 6 25 13 27 25 168 127 176 127 4 0 21 14 38
31 16 17 43 38 59 46 17 9 45 29 63 44 18 16 44 29 57 29 14 0 25 4 25 9 0 5
17 7 38 4 53 -7 71 11 79 76 3 32 14 62 24 72 24 24 55 86 64 129 4 19 16 50
26 69 11 19 17 41 14 49 -3 8 3 21 15 29 14 10 20 25 20 54 0 22 13 74 29 117
82 217 127 437 116 561 -3 41 -10 82 -15 90 -4 9 -10 70 -13 136 -3 78 -12
146 -26 195 -14 49 -19 88 -15 113 4 25 1 45 -9 60 -7 12 -17 52 -21 88 -6 64
-44 190 -69 230 -6 10 -17 19 -24 19 -6 0 -14 17 -18 38 -3 20 -16 56 -28 79
-12 22 -36 67 -53 100 -17 32 -43 76 -57 97 -15 21 -27 45 -27 53 0 8 -5 11
-11 8 -6 -4 -8 -14 -5 -22 4 -10 0 -13 -12 -11 -9 2 -18 13 -20 25 -2 13 -18
32 -35 45 -18 12 -68 58 -113 102 -91 91 -209 196 -219 196 -4 0 -2 -7 5 -15
32 -38 -27 -22 -156 43 -44 22 -106 45 -137 51 -31 6 -67 17 -80 25 -35 23
-269 96 -329 102 -29 3 -64 7 -78 9 -14 2 -62 9 -107 16 -58 8 -83 16 -83 25
0 8 -4 14 -10 14 -5 0 -10 -5 -10 -11 0 -7 -16 -9 -47 -5 -27 4 -69 9 -95 12
-27 3 -48 10 -48 14 0 10 26 20 53 20 12 0 28 4 35 8 15 10 -291 12 -335 2z
m-893 -694 c0 -6 -10 -16 -22 -21 -11 -6 -28 -23 -37 -40 -9 -16 -28 -41 -42
-55 -14 -14 -31 -35 -37 -45 -8 -14 -14 -17 -21 -9 -14 13 44 104 65 104 8 0
14 8 14 17 0 19 45 60 67 60 7 0 13 -5 13 -11z"/>
<path d="M1242 3594 c-7 -8 -8 -14 -3 -14 10 0 25 19 20 25 -2 1 -10 -3 -17
-11z"/>
<path d="M2840 3517 c0 -3 12 -12 26 -22 15 -9 23 -12 20 -6 -7 11 -46 35 -46
28z"/>
<path d="M795 3400 c-3 -5 -2 -10 4 -10 5 0 13 5 16 10 3 6 2 10 -4 10 -5 0
-13 -4 -16 -10z"/>
<path d="M690 3320 c-9 -6 -10 -10 -3 -10 6 0 15 5 18 10 8 12 4 12 -15 0z"/>
<path d="M680 3286 c7 -7 14 -6 21 1 9 9 7 12 -9 10 -14 -1 -18 -5 -12 -11z"/>
<path d="M594 3217 c-18 -12 -40 -34 -50 -49 -11 -16 -26 -30 -34 -33 -17 -6
-65 -84 -56 -92 3 -3 23 13 44 36 20 22 41 41 45 41 14 0 37 28 37 44 0 8 8
21 18 28 23 18 47 48 36 47 -5 0 -23 -10 -40 -22z"/>
<path d="M386 2773 c-6 -14 -5 -15 5 -6 7 7 10 15 7 18 -3 3 -9 -2 -12 -12z"/>
<path d="M3870 1853 c-7 -16 -14 -48 -16 -71 -3 -24 -9 -52 -14 -62 -6 -10
-10 -28 -10 -39 0 -11 -5 -23 -11 -27 -14 -8 -29 14 -22 35 3 11 1 11 -7 -2
-6 -10 -9 -25 -6 -33 3 -8 1 -14 -5 -14 -6 0 -8 -8 -4 -18 9 -31 -14 -163 -42
-232 -14 -36 -28 -82 -31 -102 -2 -21 -11 -43 -18 -49 -8 -6 -14 -23 -14 -38
0 -15 -7 -37 -16 -49 -18 -26 -12 -28 20 -6 27 17 41 6 31 -26 -8 -26 -2 -25
28 3 29 27 62 89 72 137 4 19 15 49 25 65 10 17 26 64 35 105 9 41 23 87 30
101 11 20 11 29 3 37 -9 9 -9 15 0 24 7 7 12 24 12 39 0 15 5 50 12 78 9 42 9
54 -4 68 -13 16 -17 32 -21 86 -2 25 -12 21 -27 -10z"/>
</g>
</svg>
