<?xml version="1.0" standalone="no"?>
<!DOCTYPE svg PUBLIC "-//W3C//DTD SVG 20010904//EN"
 "http://www.w3.org/TR/2001/REC-SVG-20010904/DTD/svg10.dtd">
<svg version="1.0" xmlns="http://www.w3.org/2000/svg"
 width="398.000000pt" height="384.000000pt" viewBox="0 0 398.000000 384.000000"
 preserveAspectRatio="xMidYMid meet">

<g transform="translate(0.000000,384.000000) scale(0.100000,-0.100000)"
fill="#000000" stroke="none">
<path d="M2048 3753 c6 -2 18 -2 25 0 6 3 1 5 -13 5 -14 0 -19 -2 -12 -5z"/>
<path d="M1543 3740 c-18 -4 -39 -13 -47 -19 -8 -7 -42 -14 -74 -16 -38 -2
-80 -12 -114 -28 l-53 -25 38 -1 c25 -1 37 -6 37 -15 0 -8 8 -16 18 -19 11 -3
1 -11 -33 -26 -27 -12 -58 -26 -67 -31 -10 -6 -27 -10 -39 -10 -11 0 -67 -23
-122 -51 -169 -85 -196 -102 -251 -154 -19 -18 -51 -36 -70 -39 -20 -4 -36
-11 -36 -17 0 -9 -73 -89 -166 -183 -29 -28 -60 -67 -69 -86 -24 -49 -63 -88
-94 -95 -28 -6 -73 -77 -95 -149 -19 -64 -9 -69 37 -18 23 26 48 53 55 60 6 7
17 22 22 33 6 10 21 21 34 25 14 3 37 27 56 55 17 27 38 49 46 49 8 0 14 8 14
18 0 19 57 68 67 58 3 -3 -9 -23 -26 -44 -17 -22 -31 -44 -31 -50 0 -5 -10
-16 -23 -25 -12 -8 -31 -31 -42 -52 -11 -21 -31 -50 -46 -65 -33 -36 -139
-243 -175 -342 -16 -43 -34 -78 -41 -78 -26 0 -42 43 -33 90 10 52 7 60 -24
60 -29 0 -46 -18 -46 -49 0 -14 -10 -45 -22 -70 -19 -37 -24 -67 -26 -151 l-4
-106 39 -24 c22 -15 39 -35 41 -48 2 -12 10 -22 19 -22 13 0 15 -9 9 -52 -3
-29 -6 -86 -6 -125 0 -57 -3 -73 -15 -73 -8 0 -19 -9 -25 -21 -9 -17 -8 -23 7
-35 15 -11 16 -15 4 -23 -11 -7 -11 -15 -2 -41 13 -37 15 -90 4 -90 -27 1 -46
64 -60 208 -4 44 -2 52 12 52 13 0 15 5 9 18 -4 9 -10 43 -13 74 -5 44 -9 55
-19 49 -17 -10 -18 -215 -2 -361 13 -116 43 -264 57 -283 6 -6 16 -34 23 -62
22 -84 110 -295 122 -295 5 0 8 -7 8 -15 0 -28 41 -97 87 -146 25 -27 53 -63
63 -81 9 -18 27 -37 39 -43 12 -5 19 -15 17 -22 -7 -16 17 -34 51 -37 23 -3
29 -10 36 -40 8 -30 13 -36 28 -31 13 4 30 -2 49 -18 16 -14 42 -28 57 -32 16
-3 63 -39 106 -80 76 -71 179 -135 217 -135 10 0 22 -5 26 -11 3 -6 27 -20 52
-30 26 -11 50 -25 54 -31 7 -13 66 -30 183 -54 44 -9 89 -20 100 -24 11 -5 79
-13 151 -19 71 -6 146 -16 165 -21 42 -12 424 -3 450 10 27 15 112 13 107 -2
-4 -11 -112 -31 -233 -42 -77 -7 -361 -9 -372 -3 -6 4 -47 10 -90 13 -87 6
-183 25 -288 55 -38 12 -83 19 -100 17 -25 -2 -15 -8 55 -31 47 -16 110 -32
140 -37 30 -5 87 -16 125 -24 115 -25 333 -38 454 -26 122 12 132 14 146 21 6
4 30 7 53 8 24 0 49 4 55 8 6 3 29 8 51 9 150 9 251 37 367 100 19 11 45 21
59 24 14 3 25 11 25 19 0 14 34 32 47 24 4 -2 13 5 20 17 7 11 18 20 25 20 6
0 18 6 25 13 27 25 168 127 176 127 4 0 21 14 38 31 16 17 43 38 59 46 17 9
45 29 63 44 18 16 44 29 57 29 14 0 25 4 25 9 0 5 17 7 38 4 53 -7 71 11 79
76 3 32 14 62 24 72 24 24 55 86 64 129 4 19 16 50 26 69 11 19 17 41 14 49
-3 8 3 21 15 29 14 10 20 25 20 54 0 22 13 74 29 117 82 217 127 437 116 561
-3 41 -10 82 -15 90 -4 9 -10 70 -13 136 -3 78 -12 146 -26 195 -14 49 -19 88
-15 113 4 25 1 45 -9 60 -7 12 -17 52 -21 88 -6 64 -44 190 -69 230 -6 10 -17
19 -24 19 -6 0 -14 17 -18 38 -3 20 -16 56 -28 79 -12 22 -36 67 -53 100 -17
32 -43 76 -57 97 -15 21 -27 45 -27 53 0 8 -5 11 -11 8 -6 -4 -8 -14 -5 -22 4
-10 0 -13 -12 -11 -9 2 -18 13 -20 25 -2 13 -18 32 -35 45 -18 12 -68 58 -113
102 -91 91 -209 196 -219 196 -4 0 -2 -7 5 -15 32 -38 -27 -22 -156 43 -44 22
-106 45 -137 51 -31 6 -67 17 -80 25 -35 23 -269 96 -329 102 -29 3 -64 7 -78
9 -14 2 -62 9 -107 16 -58 8 -83 16 -83 25 0 8 -4 14 -10 14 -5 0 -10 -5 -10
-11 0 -7 -16 -9 -47 -5 -27 3 -76 5 -110 5 -55 0 -63 2 -63 19 0 16 8 19 50
20 27 0 57 5 65 10 19 10 -285 12 -332 2z m83 -878 c115 -91 149 -129 176
-190 37 -82 20 -80 -92 10 -107 87 -147 133 -194 225 -31 61 -32 71 -8 51 9
-8 62 -51 118 -96z m794 93 c0 -16 -54 -108 -89 -153 -43 -54 -228 -209 -237
-199 -4 3 -1 21 5 38 26 76 64 121 184 218 114 93 137 109 137 96z m-602 -409
c42 -40 111 -160 99 -172 -7 -8 -185 103 -260 161 -61 48 -136 136 -168 197
-10 21 -19 39 -19 42 0 12 309 -190 348 -228z m605 182 c-45 -85 -172 -204
-308 -290 -66 -42 -121 -72 -123 -68 -7 20 55 128 97 170 36 35 342 240 359
240 2 0 -9 -24 -25 -52z m-611 -338 c133 -71 153 -79 167 -66 24 21 281 147
281 138 0 -21 -115 -133 -177 -172 -37 -24 -70 -45 -72 -47 -2 -2 1 -14 7 -28
13 -29 11 -30 -28 -10 -27 14 -33 14 -61 0 -36 -19 -46 -14 -32 18 10 21 7 25
-46 52 -31 16 -83 56 -117 90 -56 56 -93 105 -78 105 3 0 74 -36 156 -80z"/>
<path d="M2840 3517 c0 -3 12 -12 26 -22 15 -9 23 -12 20 -6 -7 11 -46 35 -46
28z"/>
<path d="M795 3400 c-3 -5 -2 -10 4 -10 5 0 13 5 16 10 3 6 2 10 -4 10 -5 0
-13 -4 -16 -10z"/>
<path d="M688 3319 c-10 -5 -18 -14 -18 -19 0 -14 28 -1 34 16 6 16 6 16 -16
3z"/>
<path d="M594 3217 c-18 -12 -40 -34 -50 -49 -11 -16 -26 -30 -34 -33 -17 -6
-65 -84 -56 -92 5 -6 134 125 167 170 24 32 16 34 -27 4z"/>
<path d="M386 2773 c-6 -14 -5 -15 5 -6 7 7 10 15 7 18 -3 3 -9 -2 -12 -12z"/>
<path d="M3870 1853 c-7 -16 -14 -48 -16 -71 -3 -24 -9 -52 -14 -62 -6 -10
-10 -28 -10 -39 0 -11 -5 -23 -11 -27 -14 -8 -29 14 -22 35 3 11 1 11 -7 -2
-6 -10 -9 -25 -6 -33 3 -8 1 -14 -5 -14 -6 0 -8 -8 -4 -18 9 -31 -14 -163 -42
-232 -14 -36 -28 -82 -31 -102 -2 -21 -11 -43 -18 -49 -8 -6 -14 -23 -14 -38
0 -15 -7 -37 -16 -49 -18 -26 -12 -28 20 -6 27 17 41 6 31 -26 -8 -26 -2 -25
28 3 29 27 62 89 72 137 4 19 15 49 25 65 10 17 26 64 35 105 9 41 21 85 27
96 6 12 7 31 4 42 -4 11 -2 23 4 27 5 3 10 19 10 35 0 16 5 51 12 79 9 42 9
54 -4 68 -13 16 -17 32 -21 86 -2 25 -12 21 -27 -10z"/>
</g>
</svg>
