<?xml version="1.0" standalone="no"?>
<!DOCTYPE svg PUBLIC "-//W3C//DTD SVG 20010904//EN"
 "http://www.w3.org/TR/2001/REC-SVG-20010904/DTD/svg10.dtd">
<svg version="1.0" xmlns="http://www.w3.org/2000/svg"
 width="255.000000pt" height="83.000000pt" viewBox="0 0 255.000000 83.000000"
 preserveAspectRatio="xMidYMid meet">

<g transform="translate(0.000000,83.000000) scale(0.100000,-0.100000)"
fill="#000000" stroke="none">
<path d="M168 776 c-115 -42 -122 -61 -126 -321 -5 -250 3 -300 54 -349 50
-49 137 -71 251 -63 138 9 200 46 222 133 6 24 11 97 11 163 l0 121 -145 0
-145 0 0 -80 0 -80 70 0 c67 0 70 -1 70 -24 0 -48 -60 -75 -137 -63 -71 12
-78 28 -78 193 0 141 1 146 24 165 34 28 143 27 171 -1 11 -11 20 -29 20 -40
0 -18 7 -20 76 -20 l77 0 -5 80 c-4 66 -9 86 -32 119 -43 61 -81 75 -221 78
-84 2 -131 -1 -157 -11z"/>
<path d="M746 775 c-51 -18 -91 -57 -105 -104 -14 -49 -15 -462 -1 -513 23
-81 126 -126 266 -115 113 8 169 47 193 133 14 50 14 417 0 482 -12 59 -56
105 -114 121 -55 15 -192 13 -239 -4z m215 -246 c19 -19 21 -30 17 -114 -2
-57 -8 -99 -15 -106 -7 -7 -39 -15 -72 -17 -54 -4 -62 -2 -85 21 -24 24 -26
34 -26 105 0 65 4 84 21 106 18 23 28 26 80 26 47 0 63 -4 80 -21z"/>
<path d="M1160 415 l0 -375 300 0 300 0 0 75 0 75 -220 0 -220 0 0 300 0 300
-80 0 -80 0 0 -375z"/>
<path d="M1400 730 l0 -60 40 0 40 0 0 -130 0 -130 -40 0 -40 0 0 -80 0 -80
160 0 160 0 0 80 0 80 -40 0 -40 0 0 130 0 130 40 0 40 0 0 60 0 60 -160 0
-160 0 0 -60z"/>
<path d="M1810 415 l0 -375 80 0 80 0 0 140 0 140 100 0 100 0 0 70 0 70 -100
0 -100 0 0 65 0 65 270 0 270 0 0 100 0 100 -350 0 -350 0 0 -375z"/>
<path d="M2220 295 l0 -255 145 0 145 0 0 75 0 75 -90 0 c-89 0 -90 0 -90 25
0 24 2 25 75 25 l75 0 0 50 0 50 -75 0 -75 0 0 35 0 35 90 0 90 0 0 70 0 70
-145 0 -145 0 0 -255z"/>
</g>
</svg>
