<?xml version="1.0" encoding="UTF-8"?>
<svg version="1.1" xmlns="http://www.w3.org/2000/svg" width="512" height="512">
<path d="M0 0 C-0.01571045 0.5576001 -0.0314209 1.1152002 -0.04760742 1.68969727 C-0.67553446 27.4823963 4.58607287 49.10410644 22.55224609 68.54052734 C42.44269646 88.59197967 71.44360627 98.1284278 99.1875 98.3125 C126.02535523 98.36787384 151.03402199 89.94252196 172 73 C172.64324219 72.52175781 173.28648437 72.04351562 173.94921875 71.55078125 C188.27246538 60.43273666 196.41544089 42.277461 199.56640625 24.87109375 C200.12130755 19.91697492 200.10675026 15.04235617 200.0625 10.0625 C200.05573242 8.6074707 200.05573242 8.6074707 200.04882812 7.12304688 C200.0371315 4.7486324 200.02074086 2.37434979 200 0 C228.4748662 9.5453229 254.43186673 25.91707063 276.24609375 46.45703125 C278.18522465 48.24763297 280.11585766 49.94386549 282.15234375 51.61328125 C285.90695953 54.76015401 288.8771847 58.23869086 292 62 C292.43086914 62.50789063 292.86173828 63.01578125 293.30566406 63.5390625 C309.16778444 82.29016013 323.22700778 104.89140355 329 129 C329.18820312 129.78375 329.37640625 130.5675 329.5703125 131.375 C332.04783062 146.51038342 328.90946995 160.50527347 320 173 C310.34679029 186.04487799 295.72675247 193.15402562 280 196 C274.99579271 196.40138992 270.00763013 196.41090482 264.9908905 196.38768005 C263.50629202 196.39186119 262.02169674 196.39734296 260.53710729 196.40399987 C256.48854745 196.41837115 252.44019262 196.41423599 248.39162195 196.40683305 C244.01316284 196.40208291 239.63474692 196.41462754 235.25630188 196.42485046 C226.6903089 196.44200815 218.12438937 196.44288472 209.55838367 196.43763756 C202.59225771 196.43358872 195.62615339 196.43504789 188.66002846 196.44038582 C187.66685513 196.44113424 186.67368181 196.44188266 185.65041232 196.44265376 C183.6324767 196.44418532 181.61454107 196.44572366 179.59660546 196.44726873 C160.69109133 196.46098299 141.78561864 196.4555638 122.88010547 196.44408352 C105.60593541 196.43415385 88.3318725 196.44708913 71.05771895 196.47101771 C53.29685058 196.49543407 35.53603207 196.50501025 17.77514726 196.49836498 C7.81329978 196.4948782 -2.14846533 196.49706898 -12.11030006 196.51461601 C-20.59116856 196.5293698 -29.0718967 196.52993209 -37.55276255 196.5125451 C-41.87468581 196.50405855 -46.19635867 196.50182777 -50.51826859 196.51719666 C-54.48419411 196.53112433 -58.44965663 196.52617817 -62.41555592 196.50695742 C-63.8407562 196.50322165 -65.26599431 196.50604846 -66.69116066 196.51656907 C-84.70861354 196.6399858 -101.68602406 191.86416019 -115.0078125 179.15234375 C-126.03913961 167.23418446 -130.68891975 153.67168936 -130.3203125 137.640625 C-129.20975759 115.84485631 -115.81101613 93.06812374 -103 76 C-102.56333008 75.4121875 -102.12666016 74.824375 -101.67675781 74.21875 C-93.1594752 62.83784538 -83.95358906 52.10529251 -73 43 C-72.05769531 42.16984375 -71.11539063 41.3396875 -70.14453125 40.484375 C-54.16691391 26.4660422 -21.90702214 0 0 0 Z " fill="#000000" transform="translate(156,295)"/>
<path d="M0 0 C2.46933931 2.18755285 4.88591023 4.41988116 7.2890625 6.6796875 C7.87945312 7.205625 8.46984375 7.7315625 9.078125 8.2734375 C25.20760742 23.25627425 35.54717828 44.74419705 41.2890625 65.6796875 C41.79759766 67.44119141 41.79759766 67.44119141 42.31640625 69.23828125 C50.33571873 102.97852222 42.45622681 139.61599511 24.54443359 168.7421875 C21.52095176 173.40853364 18.00645295 177.56023886 14.2890625 181.6796875 C13.58265625 182.51628906 12.87625 183.35289062 12.1484375 184.21484375 C-5.86770453 205.1796709 -31.67941973 219.32762779 -58.7109375 224.6796875 C-62.32421875 224.8359375 -62.32421875 224.8359375 -64.7109375 224.6796875 C-64.7109375 225.3396875 -64.7109375 225.9996875 -64.7109375 226.6796875 C-63.99550781 226.65648437 -63.28007812 226.63328125 -62.54296875 226.609375 C-41.61733489 226.23038551 -41.61733489 226.23038551 -35.2734375 232.0546875 C-28.219494 240.19960107 -24.30859422 249.73167978 -24.4375 260.41796875 C-25.21925414 269.74317883 -29.47896198 276.90692072 -35.7109375 283.6796875 C-36.27296875 284.29585938 -36.835 284.91203125 -37.4140625 285.546875 C-49.41466263 297.28659252 -67.30011423 301.27081975 -83.5234375 301.1171875 C-85.23019653 301.10473999 -85.23019653 301.10473999 -86.97143555 301.09204102 C-104.43194501 300.74250741 -119.73334591 295.30809606 -132.55078125 283.07421875 C-139.98520733 274.83316416 -143.32699507 265.93799924 -143.078125 254.86328125 C-141.91625921 244.78965761 -136.48369552 236.08678853 -128.7109375 229.6796875 C-120.28389328 226.27873479 -111.65111467 226.54558484 -102.7109375 226.6796875 C-102.7109375 226.0196875 -102.7109375 225.3596875 -102.7109375 224.6796875 C-104.0103125 224.6178125 -105.3096875 224.5559375 -106.6484375 224.4921875 C-137.1061336 221.28386277 -165.60552733 201.82336376 -184.7109375 178.6796875 C-207.8115034 149.40275977 -215.38873998 113.29331716 -211.23828125 76.703125 C-210.60657028 72.92798999 -209.77223661 69.3558985 -208.7109375 65.6796875 C-208.42887451 64.65125732 -208.42887451 64.65125732 -208.14111328 63.60205078 C-201.97327392 41.49694631 -190.34717478 23.30777565 -174.7109375 6.6796875 C-174.185 6.08929688 -173.6590625 5.49890625 -173.1171875 4.890625 C-128.60336923 -43.02986303 -47.63259522 -40.76910887 0 0 Z " fill="#000000" transform="translate(339.7109375,51.3203125)"/>
</svg>
